<svg width="42" height="42" viewBox="0 0 42 42" fill="none" xmlns="http://www.w3.org/2000/svg">
<path d="M40.0907 17.1818H30.5451C27.3875 17.1818 24.8179 14.6122 24.8179 11.4545V1.90897C24.8179 0.855386 25.6715 0 26.7272 0C27.7829 0 28.6362 0.855386 28.6362 1.90897V11.4545C28.6362 12.5064 29.4916 13.3635 30.5451 13.3635H40.0907C41.1464 13.3635 41.9997 14.2189 41.9997 15.2728C41.9997 16.3264 41.1464 17.1818 40.0907 17.1818Z" fill="#F5259E"/>
<path d="M26.7272 41.9999C25.6715 41.9999 24.8179 41.1449 24.8179 40.091V30.5454C24.8179 27.3878 27.3875 24.8181 30.5451 24.8181H40.0907C41.1464 24.8181 41.9997 25.6735 41.9997 26.7274C41.9997 27.781 41.1464 28.6364 40.0907 28.6364H30.5451C29.4916 28.6364 28.6362 29.4935 28.6362 30.5454V40.091C28.6362 41.1449 27.7829 41.9999 26.7272 41.9999Z" fill="#F5259E"/>
<path d="M11.4545 17.1818H1.90897C0.853288 17.1818 0 16.3264 0 15.2728C0 14.2189 0.853288 13.3635 1.90897 13.3635H11.4545C12.5085 13.3635 13.3635 12.5064 13.3635 11.4545V1.90897C13.3635 0.855386 14.2172 0 15.2728 0C16.3285 0 17.1818 0.855386 17.1818 1.90897V11.4545C17.1818 14.6122 14.6122 17.1818 11.4545 17.1818Z" fill="#F5259E"/>
<path d="M15.2728 41.9999C14.2172 41.9999 13.3635 41.1449 13.3635 40.091V30.5454C13.3635 29.4935 12.5085 28.6364 11.4545 28.6364H1.90897C0.853288 28.6364 0 27.781 0 26.7274C0 25.6735 0.853288 24.8181 1.90897 24.8181H11.4545C14.6122 24.8181 17.1818 27.3878 17.1818 30.5454V40.091C17.1818 41.1449 16.3285 41.9999 15.2728 41.9999Z" fill="#F5259E"/>
</svg>
